<svg id="Layer_1" data-name="Layer 1" xmlns="http://www.w3.org/2000/svg" xmlns:xlink="http://www.w3.org/1999/xlink" viewBox="0 0 133 186">
  <defs>
    <style>
      .cls-1, .cls-2 {
        fill: none;
      }

      .cls-1 {
        clip-rule: evenodd;
      }

      .cls-3 {
        clip-path: url(#clip-path);
      }

      .cls-4 {
        clip-path: url(#clip-path-2);
      }

      .cls-5 {
        fill: #fff;
      }

      .cls-6 {
        clip-path: url(#clip-path-3);
      }

      .cls-7 {
        clip-path: url(#clip-path-4);
      }
    </style>
    <clipPath id="clip-path" transform="translate(-0.6 -1.1)">
      <path class="cls-1" d="M114.74,175.74a7.42,7.42,0,1,1,7.46-7.42,7.44,7.44,0,0,1-7.46,7.42m13.86-7.42a13.86,13.86,0,1,0-13.86,13.78,13.82,13.82,0,0,0,13.86-13.78"/>
    </clipPath>
    <clipPath id="clip-path-2" transform="translate(-0.6 -1.1)">
      <rect class="cls-2" x="-108.4" y="-225.9" width="360" height="640"/>
    </clipPath>
    <clipPath id="clip-path-3" transform="translate(-0.6 -1.1)">
      <path class="cls-1" d="M44,120.61v47.71a7.46,7.46,0,0,0,14.92,0V120.61a8.51,8.51,0,0,1,8.53-8.48h5.33a18.07,18.07,0,0,0,18.12-18V51.69a39.44,39.44,0,0,0-78.89,0V88.8c0,1.5.62,2.12,2.13,2.12H69.56a3.18,3.18,0,1,1,0,6.36H14.13A8.51,8.51,0,0,1,5.6,88.8V51.69a45.84,45.84,0,0,1,91.68,0V94.1a24.45,24.45,0,0,1-24.52,24.39H67.43c-1.51,0-2.13.62-2.13,2.12v47.71a13.86,13.86,0,0,1-27.72,0V120.61c0-1.5-.62-2.12-2.13-2.12H22.66a3.18,3.18,0,1,1,0-6.36H35.45A8.51,8.51,0,0,1,44,120.61"/>
    </clipPath>
    <clipPath id="clip-path-4" transform="translate(-0.6 -1.1)">
      <rect class="cls-2" x="-118.4" y="-225.9" width="360" height="640"/>
    </clipPath>
  </defs>
  <title>pingpong</title>
  <g>
    <g class="cls-3">
      <g class="cls-4">
        <rect class="cls-5" x="95.28" y="148.43" width="37.72" height="37.57"/>
      </g>
    </g>
    <g class="cls-6">
      <g class="cls-7">
        <rect class="cls-5" width="101.68" height="186"/>
      </g>
    </g>
  </g>
</svg>
